<?xml version="1.0" standalone="no"?>
<!DOCTYPE svg PUBLIC "-//W3C//DTD SVG 20010904//EN"
 "http://www.w3.org/TR/2001/REC-SVG-20010904/DTD/svg10.dtd">
<svg version="1.0" xmlns="http://www.w3.org/2000/svg"
 width="207.000000pt" height="177.000000pt" viewBox="0 0 207.000000 177.000000"
 preserveAspectRatio="xMidYMid meet">

<g transform="translate(0.000000,177.000000) scale(0.100000,-0.100000)"
fill="#000000" stroke="none">
<path d="M857 1764 c-4 -4 -7 -60 -7 -125 0 -65 -4 -129 -10 -143 l-10 -26
-212 -1 c-225 -1 -255 -4 -271 -31 -9 -13 -2 -28 30 -70 137 -179 167 -412 78
-613 -48 -110 -123 -147 -260 -127 -137 20 -162 17 -184 -25 -14 -27 -15 -147
-1 -173 6 -10 39 -28 77 -41 128 -42 173 -114 173 -278 0 -58 3 -71 23 -89 23
-22 24 -22 516 -22 341 0 505 4 532 11 83 25 159 126 159 212 0 59 23 102 61
116 19 7 44 17 57 22 27 10 42 46 42 98 0 51 20 68 238 196 131 77 182 112
180 124 -2 9 -11 17 -21 19 -9 2 -102 -44 -205 -101 -327 -183 -352 -192 -534
-203 -122 -8 -126 -10 -152 -91 -24 -71 -85 -127 -158 -143 -31 -7 -61 -11
-67 -9 -9 3 -13 46 -15 144 -2 99 -11 188 -31 303 l-28 162 25 28 c30 32 48
64 48 86 0 13 -13 16 -73 16 -99 0 -119 -21 -75 -81 24 -32 17 -61 -16 -67
-22 -5 -176 150 -176 175 0 20 158 183 176 183 7 0 17 -7 25 -16 11 -13 9 -23
-11 -59 -34 -62 -21 -75 77 -75 l74 0 -3 82 -3 82 -45 11 c-67 16 -64 38 14
114 53 51 69 60 83 52 34 -18 124 -121 121 -138 -2 -10 -20 -20 -48 -27 l-45
-11 -3 -82 -3 -83 75 0 c91 0 105 13 75 72 -10 20 -19 44 -19 52 0 18 27 28
48 17 29 -15 162 -158 162 -173 0 -19 -163 -178 -183 -178 -33 0 -37 33 -10
79 25 42 25 45 7 58 -11 8 -45 13 -87 13 l-69 0 6 -32 c3 -18 20 -47 37 -65
l32 -32 -22 -117 c-25 -131 -39 -162 -85 -190 l-31 -19 84 -3 c167 -6 226 23
305 151 80 130 109 263 87 406 -23 147 -108 295 -200 349 -41 24 -58 27 -171
32 l-125 5 0 25 c0 26 16 32 190 72 48 10 60 17 60 32 0 22 -12 27 -138 52
-103 20 -116 28 -126 74 -6 33 -28 49 -44 34z m-58 -1260 l31 -26 0 -114 0
-114 -98 0 c-141 0 -142 1 -142 149 0 65 3 121 7 124 3 4 43 7 89 7 74 0 86
-3 113 -26z"/>
</g>
</svg>
